<svg id="Logo" xmlns="http://www.w3.org/2000/svg" width="181.134" height="199.152" viewBox="0 0 181.134 199.152">
  <path id="Path_4" data-name="Path 4" d="M130.75,27.43a80.09,80.09,0,1,0,80.09,80.09A80.093,80.093,0,0,0,130.75,27.43Zm55.09,99.35c-12.82,26.69-39.64,14.64-39.64,14.64,26.75,0,36.09-18.6,36.82-36.98H168.13c-1.43,16.97-14.63,33.31-32.2,37.22-25.52,5.67-38.99,2.13-43.24,24.1,0,0-18.43-62.38,21.27-66.64,0,0-14.89,7.8-9.92,19.85,0,0,28.36-.71,29.06-18.43s-14.89-16.3-24.1-16.3-31.22-1.49-35.11,9.18V75.74h54.96s24.03,2.82,23.71,21.97-9.53,27.65-23,32.62-39.7-2.84-36.15,20.56c0,0,2.84-12.05,12.05-12.76s33.32.71,46.08-14.18,14.18-53.88-37.57-53.88c0,0,32.61-9.92,48.21,12.05a32.725,32.725,0,0,1,5.66,13.82h14.99c-1.63-14.42-11.37-28.22-36.61-28.22,0,0,26.82-10.05,39.64,12.2a39.355,39.355,0,0,1,4.98,21.31,55.02,55.02,0,0,1-4.98,25.57Z" transform="translate(-36.93 -27.43)" fill="#303456"/>
  <path id="Path_5" data-name="Path 5" d="M48.37,181.16l.52-.29.9.95a6.858,6.858,0,0,0,2.74,1.88,5.944,5.944,0,0,0,2.82.26,7.614,7.614,0,0,0,2.66-.93,12.023,12.023,0,0,0,2.31-1.69,3.688,3.688,0,0,0,1.27-2.09,2.625,2.625,0,0,0-.89-2.14,1.693,1.693,0,0,0-.77-.52,1.363,1.363,0,0,0-.89.14c-.35.16-.83.4-1.44.74l-13.14,7.09a6.21,6.21,0,0,0-1.15.8.858.858,0,0,0-.28.87,3.368,3.368,0,0,0,.78,1.3l-.51.31c-.37-.45-.82-.96-1.34-1.53s-1.08-1.17-1.66-1.79c-.66-.71-1.3-1.37-1.9-2s-1.1-1.11-1.47-1.46l.5-.31a7.092,7.092,0,0,0,1.22.96,1.571,1.571,0,0,0,1.11.16,5.759,5.759,0,0,0,1.54-.65l13.14-7.09a6.962,6.962,0,0,0,1.18-.83.884.884,0,0,0,.29-.84,3.177,3.177,0,0,0-.82-1.3l.52-.29c.32.37.77.88,1.35,1.52s1.17,1.29,1.75,1.91c.48.51.97,1.01,1.47,1.52s.99,1.02,1.49,1.54a9.359,9.359,0,0,1,2.71,4.54,3.71,3.71,0,0,1-1.23,3.45,6.075,6.075,0,0,1-3.99,1.68,10.176,10.176,0,0,1-4.95-1.14,17.533,17.533,0,0,1-5.06-3.87l-.8-.85Zm6.75,17.97-3.27-2.48,16.33-11.96c.55-.41.83-.81.83-1.19s-.37-.87-1.13-1.45l.51-.38a21.731,21.731,0,0,0,3.14,1.97,18.345,18.345,0,0,0,2.97,1.18L55.11,199.13Zm3.13-2.92q2.955-1.965,5.07-3.09a18.045,18.045,0,0,1,3.64-1.54,5.9,5.9,0,0,1,2.64-.2,4.816,4.816,0,0,1,2.05.92,2.741,2.741,0,0,1,1.24,1.71,2.219,2.219,0,0,1-.5,1.64,7.1,7.1,0,0,1-1.61,1.5l-7.46,5.11c-.46.31-.71.58-.77.82a.513.513,0,0,0,.21.58,1.3,1.3,0,0,0,.91.17,5.126,5.126,0,0,0,1.91-.9l1.26-.79.44.33-1.86,1.25a4.73,4.73,0,0,1-1.97.84,3.567,3.567,0,0,1-1.65-.14,4.458,4.458,0,0,1-1.3-.68,2.777,2.777,0,0,1-1.23-1.72,2.254,2.254,0,0,1,.52-1.72,7.16,7.16,0,0,1,1.75-1.58l6.81-4.69a6.072,6.072,0,0,0,.76-.59,1.473,1.473,0,0,0,.41-.59c.06-.19-.02-.36-.24-.53a2.02,2.02,0,0,0-1.46-.2,10.338,10.338,0,0,0-2.43.71,28.494,28.494,0,0,0-3.08,1.5c-1.11.61-2.26,1.31-3.45,2.09s-2.36,1.62-3.51,2.52l2.89-2.74Zm13.83,13.21a1.556,1.556,0,0,0,1.13.05,6.479,6.479,0,0,0,1.69-.72,15.443,15.443,0,0,0,2.1-1.49,24.992,24.992,0,0,0,2.41-2.3l-2.08,2.48a14.107,14.107,0,0,1-3.05,2.25,5.785,5.785,0,0,1-2.51.72,4.293,4.293,0,0,1-2.08-.5A3.042,3.042,0,0,1,68,207.9a3.911,3.911,0,0,1,.53-2.69,10.925,10.925,0,0,1,2.04-2.63,17.346,17.346,0,0,1,2.86-2.22,16.368,16.368,0,0,1,3.19-1.54,10.342,10.342,0,0,1,3.12-.62,5.04,5.04,0,0,1,2.6.55,1.69,1.69,0,0,1,.94,1.37,3.368,3.368,0,0,1-.84,2.22h-.36a3.159,3.159,0,0,0,.69-1.48.859.859,0,0,0-.45-.91,1.973,1.973,0,0,0-1.46-.03,8.538,8.538,0,0,0-2.11.94,17.717,17.717,0,0,0-2.39,1.7,18.147,18.147,0,0,0-2.3,2.26,14.792,14.792,0,0,0-1.83,2.63,3.5,3.5,0,0,0-.49,1.32A.653.653,0,0,0,72.08,209.42Zm12.03-9.22c.74.38,1.43.7,2.06.97a14.839,14.839,0,0,0,1.86.66l-9.55,9.58c-.17.19-.32.38-.46.56a.8.8,0,0,0-.18.51.462.462,0,0,0,.3.39,1.3,1.3,0,0,0,.96,0,5.1,5.1,0,0,0,1.73-1.17l1.13-.97.49.26-1.66,1.52A4.737,4.737,0,0,1,79,213.62a3.7,3.7,0,0,1-1.63.14,4.307,4.307,0,0,1-1.38-.45,2.474,2.474,0,0,1-1.46-1.82,2.525,2.525,0,0,1,.41-1.58,10.17,10.17,0,0,1,1.38-1.72l7.8-8.01Zm3.43,17.99-3.87-1.36,7.48-10.69a3.492,3.492,0,0,0,.42-.64.819.819,0,0,0,.11-.52.476.476,0,0,0-.35-.32,1.219,1.219,0,0,0-1.05.14,6.4,6.4,0,0,0-1.47,1.41l-1.01,1.22-.52-.18,1.47-1.83a4.577,4.577,0,0,1,2.21-1.69,3.78,3.78,0,0,1,2.32.1,2.921,2.921,0,0,1,1.39.87,1.788,1.788,0,0,1,.38,1.17,3.943,3.943,0,0,1-.3,1.3,7.609,7.609,0,0,1-.67,1.26l-6.54,9.76Zm2.51-4.33q2.115-2.61,3.72-4.23a16.145,16.145,0,0,1,2.88-2.4,5.843,5.843,0,0,1,2.37-.9,5.025,5.025,0,0,1,2.16.26,2.757,2.757,0,0,1,1.69,1.24,2.2,2.2,0,0,1,.04,1.73,7.146,7.146,0,0,1-1.07,1.92l-5.53,7.16a1.741,1.741,0,0,0-.51,1.02.54.54,0,0,0,.39.48,1.382,1.382,0,0,0,.94-.12,5.031,5.031,0,0,0,1.56-1.44l.95-1.15.52.18-1.39,1.76a4.684,4.684,0,0,1-1.62,1.41,3.59,3.59,0,0,1-1.61.37,4.436,4.436,0,0,1-1.44-.24,3.591,3.591,0,0,1-1.26-.71,2.1,2.1,0,0,1-.62-.97,2.573,2.573,0,0,1,.14-1.5,7.128,7.128,0,0,1,1.16-1.92l5.07-6.55a4.012,4.012,0,0,0,.52-.77,1.777,1.777,0,0,0,.21-.7c.01-.21-.12-.35-.37-.44a1.907,1.907,0,0,0-1.42.26,10.94,10.94,0,0,0-2.04,1.38,28.833,28.833,0,0,0-2.42,2.28c-.85.89-1.7,1.86-2.56,2.91s-1.68,2.14-2.47,3.28l2.03-3.6Zm16.68,7.41a1.29,1.29,0,0,0-.18,1.09.824.824,0,0,0,.65.49,1.751,1.751,0,0,0,1.32-.35,5.278,5.278,0,0,0,1.44-1.63l.67-1.08.54.11-.91,1.53a5.227,5.227,0,0,1-2.19,2.19,4.35,4.35,0,0,1-2.78.29,3.115,3.115,0,0,1-1.9-1.02,2.49,2.49,0,0,1-.5-1.81,6.159,6.159,0,0,1,.69-2.25l7.35-13.96c.82.15,1.57.27,2.25.35a14.821,14.821,0,0,0,1.97.11l-8.41,15.93Zm9.33-10.9-.2.55-9.88-2.05.26-.54,9.83,2.04Zm2.25,14.09a1.642,1.642,0,0,0,1.06-.41,6.423,6.423,0,0,0,1.24-1.35,15.514,15.514,0,0,0,1.31-2.22,26.691,26.691,0,0,0,1.27-3.08l-.89,3.11a14.179,14.179,0,0,1-1.87,3.29,5.8,5.8,0,0,1-2,1.68,4.318,4.318,0,0,1-2.1.39,3.044,3.044,0,0,1-2.36-1.15,3.951,3.951,0,0,1-.61-2.67,10.967,10.967,0,0,1,.8-3.24,17.135,17.135,0,0,1,4-5.9,10.419,10.419,0,0,1,2.6-1.84,5.037,5.037,0,0,1,2.6-.55,1.7,1.7,0,0,1,1.42.87,3.4,3.4,0,0,1,.13,2.37l-.33.15a3.22,3.22,0,0,0,.03-1.63.868.868,0,0,0-.78-.65,2.033,2.033,0,0,0-1.34.56,8.355,8.355,0,0,0-1.55,1.72,19.736,19.736,0,0,0-1.5,2.52,19.321,19.321,0,0,0-1.19,3,14.7,14.7,0,0,0-.6,3.15,3.517,3.517,0,0,0,.09,1.41.648.648,0,0,0,.58.45Zm7.25-13.31c.83.05,1.59.06,2.27.05a15.582,15.582,0,0,0,1.97-.15l-4.83,12.63c-.08.25-.14.48-.19.7a.736.736,0,0,0,.05.54.509.509,0,0,0,.43.24,1.342,1.342,0,0,0,.88-.38,5.132,5.132,0,0,0,1.1-1.77l.63-1.35.55.04-.89,2.06a4.63,4.63,0,0,1-1.19,1.74,3.85,3.85,0,0,1-1.43.79,4.024,4.024,0,0,1-1.44.15,2.439,2.439,0,0,1-2.07-1.07,2.506,2.506,0,0,1-.27-1.61,10.088,10.088,0,0,1,.56-2.13l3.87-10.49Zm7.67,14.72a1.757,1.757,0,0,0,.5.13,3.4,3.4,0,0,0,.64,0,2.3,2.3,0,0,0,2.3-2.63,5.252,5.252,0,0,0-.52-1.94,12.159,12.159,0,0,0-1.34-2.13c-.48-.67-.93-1.33-1.35-1.97a4.546,4.546,0,0,1-.69-2.23,3.86,3.86,0,0,1,.52-2.24,4.356,4.356,0,0,1,1.73-1.61,6.632,6.632,0,0,1,2.8-.71,7.644,7.644,0,0,1,2.09.15,3.768,3.768,0,0,1,1.72.81,2.433,2.433,0,0,1,.77,1.82,2.708,2.708,0,0,1-.14.97,1.984,1.984,0,0,1-.54.89,1.473,1.473,0,0,1-.98.39,1.418,1.418,0,0,1-1.19-.47,2.143,2.143,0,0,1-.51-1.38,3.425,3.425,0,0,1,.2-1.42,3.626,3.626,0,0,1,.57-1.04,1.986,1.986,0,0,0-1.03-.18,2.15,2.15,0,0,0-1.61.73,2.732,2.732,0,0,0-.53,1.86,3.7,3.7,0,0,0,.3,1.25,6.1,6.1,0,0,0,.71,1.17c.3.39.61.83.95,1.32a19.294,19.294,0,0,1,1.43,2.37,5.321,5.321,0,0,1,.53,2.04,4.006,4.006,0,0,1-.53,2.29,4.557,4.557,0,0,1-1.8,1.7,6.8,6.8,0,0,1-2.89.76,8.584,8.584,0,0,1-2.34-.19,3.742,3.742,0,0,1-1.84-.96,2.81,2.81,0,0,1-.79-1.95,2.6,2.6,0,0,1,.34-1.48,1.347,1.347,0,0,1,1.17-.7,1.4,1.4,0,0,1,1.26.59,2.769,2.769,0,0,1,.52,1.59,4.1,4.1,0,0,1-.14,1.38c-.12.41-.22.76-.31,1.04Zm13.42-13.4c.17-1.01,0-1.47-.54-1.39a1.27,1.27,0,0,0-.87.67,6.292,6.292,0,0,0-.61,1.89l-.35,1.56-.55.09.46-2.31a4.743,4.743,0,0,1,.74-1.94,3.656,3.656,0,0,1,1.24-1.12,4.655,4.655,0,0,1,1.55-.52,2.959,2.959,0,0,1,1.64.12,1.914,1.914,0,0,1,.93.84,3.183,3.183,0,0,1,.35,1.27,6.354,6.354,0,0,1-.07,1.44l-1.63,9.27a1.881,1.881,0,0,0,.04,1.13.527.527,0,0,0,.59.25,1.278,1.278,0,0,0,.75-.56,5.559,5.559,0,0,0,.7-1.99l.3-1.46.54-.09-.41,2.22a4.775,4.775,0,0,1-.75,1.97,3.647,3.647,0,0,1-1.22,1.11,4.469,4.469,0,0,1-1.44.49,2.868,2.868,0,0,1-1.97-.25,2.129,2.129,0,0,1-.95-1.47,6.829,6.829,0,0,1,.02-2.51l1.52-8.69Zm-.05-7.41a2.439,2.439,0,0,1,.61-2.04,3.236,3.236,0,0,1,1.92-.98,2.358,2.358,0,0,1,1.7.25,1.617,1.617,0,0,1,.72,1.31,2.451,2.451,0,0,1-.63,1.97,3.21,3.21,0,0,1-1.96,1.03,2.231,2.231,0,0,1-1.64-.26,1.609,1.609,0,0,1-.72-1.29ZM160,221.42a1.577,1.577,0,0,0,.84-.75,6.264,6.264,0,0,0,.7-1.7,15.167,15.167,0,0,0,.46-2.53,26.651,26.651,0,0,0,.11-3.33l.25,3.22a13.976,13.976,0,0,1-.6,3.74,5.77,5.77,0,0,1-1.29,2.27,4.145,4.145,0,0,1-1.84,1.09,3,3,0,0,1-2.61-.26,3.9,3.9,0,0,1-1.5-2.3,10.947,10.947,0,0,1-.38-3.31,17.034,17.034,0,0,1,.49-3.59,17.269,17.269,0,0,1,1.2-3.33,10.007,10.007,0,0,1,1.8-2.63,5.037,5.037,0,0,1,2.24-1.42,1.7,1.7,0,0,1,1.63.32,3.442,3.442,0,0,1,.95,2.18l-.26.26a3.24,3.24,0,0,0-.54-1.54.84.84,0,0,0-.96-.33,2.023,2.023,0,0,0-1.06,1,8.424,8.424,0,0,0-.86,2.15,18.888,18.888,0,0,0-.53,2.89,18.156,18.156,0,0,0-.07,3.22,15.455,15.455,0,0,0,.53,3.16,3.325,3.325,0,0,0,.58,1.29.635.635,0,0,0,.7.22Zm2.15-15.01c.8-.25,1.51-.49,2.15-.75a17.355,17.355,0,0,0,1.79-.83l-.13,13.52a5.168,5.168,0,0,0,.07.72.756.756,0,0,0,.23.49.481.481,0,0,0,.49.07,1.333,1.333,0,0,0,.69-.66,5.143,5.143,0,0,0,.42-2.04l.12-1.49.53-.15-.12,2.24a4.577,4.577,0,0,1-.51,2.05,3.636,3.636,0,0,1-1.07,1.24,4.25,4.25,0,0,1-1.3.64,2.218,2.218,0,0,1-3.13-1.7,10.042,10.042,0,0,1-.21-2.19l-.03-11.18Zm15.76,6.84a6.143,6.143,0,0,0,.49,1.51.712.712,0,0,0,.75.4,5.6,5.6,0,0,0,1.41-.44l.16.57c-.5.21-1.13.49-1.87.85s-1.49.73-2.26,1.11c-.87.43-1.67.84-2.41,1.22s-1.34.71-1.79.98l-.13-.59a5.875,5.875,0,0,0,1.23-.88,1.562,1.562,0,0,0,.46-1.01,6.306,6.306,0,0,0-.18-1.67l-3.02-14.62a4.987,4.987,0,0,0-.5-1.52.8.8,0,0,0-.77-.4,4.309,4.309,0,0,0-1.39.45l-.13-.59c.44-.2,1.05-.48,1.82-.85s1.59-.76,2.46-1.2c.76-.38,1.5-.76,2.21-1.14s1.33-.71,1.86-1l.13.59a5.563,5.563,0,0,0-1.28.88,1.57,1.57,0,0,0-.45,1.01,6.449,6.449,0,0,0,.18,1.68l3.03,14.62Zm-2.74-6.44-.08-.61,9.18-4.6.05.62-9.16,4.58Zm6.5-11.58a5.124,5.124,0,0,0-.49-1.53.794.794,0,0,0-.77-.4,4.534,4.534,0,0,0-1.4.46l-.13-.59c.48-.22,1.09-.5,1.85-.86s1.5-.72,2.25-1.09c.85-.43,1.65-.84,2.4-1.24s1.37-.73,1.85-.99l.13.59a5.563,5.563,0,0,0-1.28.88,1.548,1.548,0,0,0-.45,1.01,6.6,6.6,0,0,0,.18,1.69l3.02,14.62a5.676,5.676,0,0,0,.5,1.51.712.712,0,0,0,.75.4,5.213,5.213,0,0,0,1.41-.44l.16.57c-.48.2-1.11.49-1.88.86s-1.58.77-2.43,1.2c-.75.37-1.49.75-2.24,1.14s-1.35.71-1.8.98l-.16-.57a6.394,6.394,0,0,0,1.27-.9,1.572,1.572,0,0,0,.47-1.02,5.908,5.908,0,0,0-.18-1.67l-3.02-14.62Zm17.58-3.49a49.307,49.307,0,0,1,1.6,5.44,15.819,15.819,0,0,1,.45,3.74,6.023,6.023,0,0,1-.53,2.47,4.763,4.763,0,0,1-1.36,1.66,2.918,2.918,0,0,1-1.8.73,1.994,1.994,0,0,1-1.5-.75,6.266,6.266,0,0,1-1.15-2.09l-3.02-8.52q-.285-.84-.6-.99a.532.532,0,0,0-.59.07,1.31,1.31,0,0,0-.41.85,5.191,5.191,0,0,0,.36,2.09l.44,1.43-.44.34-.72-2.12a4.895,4.895,0,0,1-.28-2.14,3.681,3.681,0,0,1,.56-1.56,4.334,4.334,0,0,1,.97-1.06,2.874,2.874,0,0,1,1.89-.74,2.206,2.206,0,0,1,1.53.84,6.96,6.96,0,0,1,1.18,2.19l2.73,7.82c.45,1.27.91,1.72,1.4,1.34a1.93,1.93,0,0,0,.55-1.34,11.356,11.356,0,0,0-.07-2.49,27.518,27.518,0,0,0-.62-3.3q-.45-1.815-1.11-3.81c-.44-1.33-.94-2.64-1.51-3.95l2.06,3.85Zm5.86,5.25a3.515,3.515,0,0,0,.53.97c.16.18.37.18.61-.01a1.288,1.288,0,0,0,.46-1,5.567,5.567,0,0,0-.39-1.96l-.47-1.51.44-.34.73,2.23a4.8,4.8,0,0,1,.3,2.03,3.555,3.555,0,0,1-.51,1.57,4.231,4.231,0,0,1-1.04,1.15,3.037,3.037,0,0,1-1.21.6,1.942,1.942,0,0,1-1.1-.07,2.5,2.5,0,0,1-1.01-.9,10.5,10.5,0,0,1-.86-1.56l-4.63-10.8q.93-.75,1.71-1.47a15.03,15.03,0,0,0,1.37-1.43l5.06,12.49Zm8.62-5.64a6.649,6.649,0,0,0-1.09,1.77,19.905,19.905,0,0,0-.77,2.11l-.45.18c-.11-.28-.22-.56-.35-.83a5.053,5.053,0,0,0-.48-.79l-9.47-16.13c-.36-.58-.73-.89-1.11-.94s-.89.27-1.55.96l-.33-.54a20.963,20.963,0,0,0,2.26-2.9,18.86,18.86,0,0,0,1.47-2.81l11.86,19.92Zm-5.42-13.31a1.872,1.872,0,0,0-.33,1.43,9.967,9.967,0,0,0,.54,2.38,24.53,24.53,0,0,0,1.24,2.93,33.307,33.307,0,0,0,1.77,3.08l-1.8-2.41a31.67,31.67,0,0,1-1.91-4.43,7.977,7.977,0,0,1-.47-3.09,3.534,3.534,0,0,1,.94-2.13,3.272,3.272,0,0,1,2.68-1.18,5.276,5.276,0,0,1,3.06,1.61,12.028,12.028,0,0,1,1.84,2.27,14.507,14.507,0,0,1,1.44,2.93,12.847,12.847,0,0,1,.72,3.21,8.926,8.926,0,0,1-.29,3.18,6.789,6.789,0,0,1-1.61,2.8,3.218,3.218,0,0,1-1.29.86,2.286,2.286,0,0,1-1.36.08l-.2-.47a2.247,2.247,0,0,0,.97,0,1.641,1.641,0,0,0,.71-.46,2.5,2.5,0,0,0,.62-1.75,7.506,7.506,0,0,0-.4-2.47,17.343,17.343,0,0,0-1.16-2.78,21.471,21.471,0,0,0-1.66-2.72,16.012,16.012,0,0,0-1.92-2.23,3.4,3.4,0,0,0-1.32-.89.818.818,0,0,0-.82.23Z" transform="translate(-36.93 -27.43)" fill="#303456"/>
</svg>
