<?xml version="1.0" encoding="UTF-8"?><svg id="Laag_1" xmlns="http://www.w3.org/2000/svg" xmlns:xlink="http://www.w3.org/1999/xlink" viewBox="0 0 446.05 300.07"><defs><style>.cls-1{fill:url(#Naamloos_verloop_7);}.cls-1,.cls-2,.cls-3,.cls-4,.cls-5,.cls-6,.cls-7{stroke-width:0px;}.cls-2{fill:url(#Naamloos_verloop_7-4);}.cls-3{fill:url(#Naamloos_verloop_7-5);}.cls-4{fill:url(#Naamloos_verloop_7-2);}.cls-6{fill:#fff;}.cls-7{fill:url(#Naamloos_verloop_7-3);}</style><linearGradient id="Naamloos_verloop_7" x1="142.13" y1="131.7" x2="48.32" y2="131.7" gradientUnits="userSpaceOnUse"><stop offset="0" stop-color="#f6e94d"/><stop offset="1" stop-color="#fbb03b"/></linearGradient><linearGradient id="Naamloos_verloop_7-2" x1="119.59" y1="235.19" x2="100.95" y2="235.19" xlink:href="#Naamloos_verloop_7"/><linearGradient id="Naamloos_verloop_7-3" x1="290.06" y1="242" x2="128.78" y2="242" xlink:href="#Naamloos_verloop_7"/><linearGradient id="Naamloos_verloop_7-4" x1="338.35" y1="64.74" x2="140.24" y2="64.74" xlink:href="#Naamloos_verloop_7"/><linearGradient id="Naamloos_verloop_7-5" x1="86.5" y1="295.78" x2="160.18" y2="214.13" gradientTransform="translate(-41.76 -122.48) rotate(-6.53)" xlink:href="#Naamloos_verloop_7"/></defs><path class="cls-1" d="m108.23,93.12c-9.73,6.55-19.16,14.1-27.19,23.5-7.97,9.33-14.98,20.73-17.07,33.19-2.38,12.25.98,25.43,7.54,36.68.76,1.31,1.54,2.59,2.36,3.85-2.23,1.83-6.53,7.88-5.46,17.63-2.26-2.82-4.43-5.88-6.48-9.16-4.18-6.69-7.93-14.53-10.31-23.79-1.43-5.33-2.2-11.15-2.3-17,.98-2.62,2.2-5.24,3.65-7.87l22.05-37.11s-3.93-3.3-8.84-7.5c1.56-2.28,3.17-4.46,4.8-6.58,3.72-4.68,7.57-8.98,11.54-12.95,4.59,3.83,8.11,6.77,8.11,6.77,0,0,16.1-23.83,34.46-37.35l16.32,20.52c-11.38,4.53-22.53,10.12-33.18,17.17Z"/><path class="cls-4" d="m110.23,226.77c3.02,2.09,6.1,4.03,9.22,5.84-3.02,3.88-6.27,7.56-9.65,11.01-2.92-1.69-5.8-3.5-8.65-5.45,2.9-3.36,6.07-7.37,9.08-11.4Z"/><path class="cls-7" d="m288.81,225.16c-20.62,13.75-42.36,23.36-64.58,29.63-22.28,6.13-45.23,8.55-68.09,5.13-8.6-1.27-17.2-3.44-25.65-6.56,4.89-2.9,9.56-6.09,14-9.53,4.2,1.38,8.45,2.54,12.72,3.48,21.74,4.85,44.11,4.06,66.09-.42,21.98-4.78,43.87-12.47,64.64-24.36l.87,2.63Z"/><path class="cls-2" d="m336.82,33.86l-6.28,3.92c-1.99,1.63-4.08,2.92-5.98,4.63-3.89,3.27-7.39,7.26-10.6,11.46-3.16,4.42-5.89,9.19-8.03,14.46-1.16,2.56-2.04,5.27-2.87,7.98-.73,2.63-1.46,5.84-1.65,7.76l-1.56,15.74-8.22-12.32c-6.95-10.4-16.19-17.24-26.06-21.37-9.88-4.56-20.43-6.26-31.03-7.26-9.54-.64-19.17-.36-28.8.78-11.81,1.28-23.68,3.71-35.4,6.77-1.56.41-3.12.84-4.67,1.29-6.78-8.21-14.62-15.64-23.32-22.11.96-.43,1.93-.85,2.89-1.26,6.03-2.64,12.11-4.92,18.24-6.84.97-.35,1.95-.64,2.92-.92,22.76-6.7,46.3-8.98,69.79-4.78,11.77,2,23.44,6.13,34.73,12.89,8.55,5.35,17.07,12.75,23.83,22.87,1.11-2.57,2.28-4.99,3.6-7.27,3.3-5.7,7.1-10.54,11.18-14.67,4.09-3.99,8.51-7.12,12.99-9.54,2.23-1.36,4.62-2.07,6.85-3.07,2.34-.78,4.67-1.35,6.96-1.99l.49,2.85Z"/><path class="cls-6" d="m109.87,112.51s5.77-13.09,17.31-25.62c3.31-3.77,9.98-7.57,14.3-10.85l-.07-.09-16.32-20.52c-18.36,13.52-34.46,37.35-34.46,37.35,0,0-3.52-2.94-8.11-6.77-5.13-4.29-11.6-9.68-16-13.3-8.24,2.78-16.37,5.89-24.4,9.32-.08,2.93,3.34,4.85,4.75,6.52,1.17,1.29,9.77,8.8,17.16,15.15.73.63,1.45,1.24,2.15,1.84,4.91,4.2,8.84,7.5,8.84,7.5l-22.05,37.11c-1.45,2.63-2.67,5.25-3.65,7.87-18.62,48.73,37.59,93.96,41.41,96.43,4.03,2.52,7.64-.4,7.64-.4,3.9-3.16,7.75-6.65,11.43-10.43,3.38-3.45,6.63-7.13,9.65-11.01,13.14-16.81,22.23-37.26,20.49-58.05-2.64-30.74-30.07-62.05-30.07-62.05Zm8.35,42.05c8.27,12.91-6.38,23.76-7.64,26.42-1.2,2.58-9.67,11.09-11.95,13.66-2.36,2.58-3.32,8.4-5.02,1.26-1.64-7.15-5.9-14.75-22.93-27.61-16.96-12.86,21.85-38.78,21.85-38.78,0,0,17.49,12.13,25.69,25.05Zm4.62,52.8c-1.13,3.05-6.53,11.26-12.61,19.41-3.01,4.03-6.18,8.04-9.08,11.4-2.85,3.3-5.44,5.98-7.35,7.43,0,0-18.12-14.02-23.72-30.3-.9-2.64-1.43-5.08-1.67-7.33-1.07-9.75,3.23-15.8,5.46-17.63.44-.37.81-.56,1.03-.59,1.54-.17,8.19.9,17.07,17.34,0,0,3.07,4.27,6.78-1.25,0,0,8.68-13.83,18.25-14.46,9.65-.56,8.14,9.94,5.84,15.98Zm33.03-48.96v54.37h13.21v-54.37h-13.21Zm20.78-43.17l-7.07-1.96c-3.46-.94-5.74-2.2-5.74-5.26s2.13-4.95,5.98-4.95,6.04,3.06,6.2,6.52h12.18c-.02-.52-.05-1.04-.12-1.55-.94-2.88-2-5.72-3.16-8.51-3.12-4.42-8.33-7.3-15.03-7.3-10.76,0-19.16,6.12-19.16,17.12,0,8.64,5.81,13.12,14.06,15.32l7.3,1.96c3.54.95,5.34,2.91,5.34,5.9,0,3.29-2.9,6.04-6.99,6.04-5.18,0-7.38-3.14-7.85-7.14h-12.73c.94,10.76,8.02,17.98,20.27,17.98,9.98,0,20.42-6.59,20.42-17.98,0-9.2-5.18-13.75-13.9-16.19Zm2.91,58.39v29.15c4.94-9.14,8.74-18.91,11.2-29.15h-11.2Z"/><path class="cls-3" d="m109.87,112.51s5.77-13.09,17.31-25.62c3.31-3.77,9.98-7.57,14.3-10.85l-.07-.09-16.32-20.52c-18.36,13.52-34.46,37.35-34.46,37.35,0,0-3.52-2.94-8.11-6.77-5.13-4.29-11.6-9.68-16-13.3-8.24,2.78-16.37,5.89-24.4,9.32-.08,2.93,3.34,4.85,4.75,6.52,1.17,1.29,9.77,8.8,17.16,15.15.73.63,1.45,1.24,2.15,1.84,4.91,4.2,8.84,7.5,8.84,7.5l-22.05,37.11c-1.45,2.63-2.67,5.25-3.65,7.87-18.62,48.73,37.59,93.96,41.41,96.43,4.03,2.52,7.64-.4,7.64-.4,3.9-3.16,7.75-6.65,11.43-10.43,3.38-3.45,6.63-7.13,9.65-11.01,13.14-16.81,22.23-37.26,20.49-58.05-2.64-30.74-30.07-62.05-30.07-62.05Zm8.35,42.05c8.27,12.91-6.38,23.76-7.64,26.42-1.2,2.58-9.67,11.09-11.95,13.66-2.36,2.58-3.32,8.4-5.02,1.26-1.64-7.15-5.9-14.75-22.93-27.61-16.96-12.86,21.85-38.78,21.85-38.78,0,0,17.49,12.13,25.69,25.05Zm4.62,52.8c-1.13,3.05-6.53,11.26-12.61,19.41-3.01,4.03-6.18,8.04-9.08,11.4-2.85,3.3-5.44,5.98-7.35,7.43,0,0-18.12-14.02-23.72-30.3-.9-2.64-1.43-5.08-1.67-7.33-1.07-9.75,3.23-15.8,5.46-17.63.44-.37.81-.56,1.03-.59,1.54-.17,8.19.9,17.07,17.34,0,0,3.07,4.27,6.78-1.25,0,0,8.68-13.83,18.25-14.46,9.65-.56,8.14,9.94,5.84,15.98Z"/><path class="cls-5" d="m155.87,158.4v54.37h13.21v-54.37h-13.21Z"/><path class="cls-5" d="m228.42,172.69c-6.06,0-10.64,2.88-13.05,6.76-2.1-4.2-6.06-6.76-11.96-6.76-5.44,0-9.79,3.03-11.5,6.76v-5.83h-12.35v39.15h12.74v-22.29c0-4.35,2.33-6.76,6.29-6.76,4.27,0,5.98,2.8,5.98,6.84v22.21h12.74v-22.68c0-3.96,2.49-6.37,6.29-6.37,4.27,0,5.98,2.8,5.98,6.84v22.21h12.74v-24.31c0-9.32-4.5-15.77-13.9-15.77Z"/><path class="cls-5" d="m276.11,172.69c-5.9,0-10.41,3.03-12.58,6.76v-5.83h-12.27v55.38h12.73v-22.05c1.79,3.96,6.22,6.75,12.12,6.75,11.34,0,19.57-8.85,19.57-20.5s-8.23-20.51-19.57-20.51Zm-2.56,30.45c-5.59,0-9.56-4.19-9.56-9.94s3.97-9.94,9.56-9.94,9.4,4.27,9.4,9.94-3.89,9.94-9.4,9.94Z"/><path class="cls-5" d="m327.69,173.62v22.45c0,4.2-2.33,6.76-6.37,6.76-4.27,0-6.06-2.8-6.06-6.84v-22.37h-12.74v24.32c0,9.32,4.51,15.76,13.9,15.76,5.44,0,9.95-3.03,11.66-6.75v5.82h12.35v-39.15h-12.74Z"/><path class="cls-5" d="m349.75,156.07v56.7h12.74v-56.7h-12.74Z"/><path class="cls-5" d="m387.89,202.75l15.37-28.74v-.39h-33.39v9.87h14.91l-15.46,28.89v.39h34.49v-10.02h-15.92Z"/><path class="cls-5" d="m176.65,115.23l-7.07-1.96c-3.46-.94-5.74-2.2-5.74-5.26s2.13-4.95,5.98-4.95,6.04,3.06,6.2,6.52h12.18c-.02-.52-.05-1.04-.12-1.55-.34-3.16-1.43-6.07-3.16-8.51-3.12-4.42-8.33-7.3-15.03-7.3-10.76,0-19.16,6.12-19.16,17.12,0,8.64,5.81,13.12,14.06,15.32l7.3,1.96c3.54.95,5.34,2.91,5.34,5.9,0,3.29-2.9,6.04-6.99,6.04-5.18,0-7.38-3.14-7.85-7.14h-12.73c.94,10.76,8.02,17.98,20.27,17.98,9.98,0,20.42-6.59,20.42-17.98,0-9.2-5.18-13.75-13.9-16.19Z"/><path class="cls-5" d="m217.89,107.77c-14.06,0-21.99,10.06-21.99,20.74s7.93,20.74,21.99,20.74,22-10.06,22-20.74-7.94-20.74-22-20.74Zm0,30.79c-6.28,0-9.42-4.79-9.42-10.05s3.14-10.06,9.42-10.06,9.43,4.8,9.43,10.06-3.14,10.05-9.43,10.05Z"/><path class="cls-5" d="m266.68,138.56c-5.97,0-9.11-4.55-9.11-10.05s3.14-10.06,9.11-10.06c4.95,0,7.54,2.6,8.72,5.5h12.49c-1.65-8.64-9.59-16.18-21.13-16.18-13.36,0-21.92,8.8-21.92,20.74s8.56,20.74,21.92,20.74c11.54,0,19.48-7.54,21.13-16.18h-12.49c-1.18,2.9-3.77,5.49-8.72,5.49Z"/><path class="cls-5" d="m295.51,108.71v39.6h12.88v-39.6h-12.88Z"/><path class="cls-5" d="m348.38,108.71v5.9c-1.81-4.01-6.52-6.84-12.49-6.84-11.47,0-19.8,8.96-19.8,20.74s8.33,20.74,19.8,20.74c5.97,0,10.52-3.07,12.72-6.84v5.9h12.42v-39.6h-12.65Zm-9.9,29.85c-5.58,0-9.51-4.32-9.51-10.05s3.93-10.06,9.51-10.06,9.66,4.25,9.66,10.06-4,10.05-9.66,10.05Z"/><path class="cls-5" d="m370.45,90.96v57.35h12.89v-57.35h-12.89Z"/></svg>